<?xml version="1.0" encoding="UTF-8" standalone="no"?>
<!DOCTYPE svg PUBLIC "-//W3C//DTD SVG 1.1//EN" "http://www.w3.org/Graphics/SVG/1.1/DTD/svg11.dtd">
<svg version="1.1" xmlns="http://www.w3.org/2000/svg" xmlns:xlink="http://www.w3.org/1999/xlink" preserveAspectRatio="xMidYMid meet" viewBox="0 0 640 640" width="640" height="640"><defs><path d="M320 73.75C228.53 168.91 251.41 255 320 255C388.59 255 411.47 168.91 320 73.75Z" id="a6LiyjhFVj"></path><path d="M57.5 341.25L265.42 341.25L265.42 366.25L57.5 366.25L57.5 341.25Z" id="d1bEXq6hf7"></path><path d="M376.25 341.25L582.5 341.25L582.5 366.25L376.25 366.25L376.25 341.25Z" id="a1PP0PVkBG"></path><path d="M122.29 441.25L292.71 441.25L292.71 466.25L122.29 466.25L122.29 441.25Z" id="c5nnqw1CUZ"></path><path d="M347.29 441.25L517.71 441.25L517.71 466.25L347.29 466.25L347.29 441.25Z" id="cicVeFmF3"></path><path d="M207.5 541.25L301.25 541.25L301.25 566.25L207.5 566.25L207.5 541.25Z" id="b1ZmUH4Hl5"></path><path d="M338.75 541.25L432.5 541.25L432.5 566.25L338.75 566.25L338.75 541.25Z" id="awUDVQqnf"></path></defs><g><g><g><use xlink:href="#a6LiyjhFVj" opacity="1" fill="#42c3e2" fill-opacity="1"></use><g><use xlink:href="#a6LiyjhFVj" opacity="1" fill-opacity="0" stroke="#000000" stroke-width="1" stroke-opacity="0"></use></g></g><g><use xlink:href="#d1bEXq6hf7" opacity="1" fill="#42c3e2" fill-opacity="1"></use></g><g><use xlink:href="#a1PP0PVkBG" opacity="1" fill="#42c3e2" fill-opacity="1"></use></g><g><use xlink:href="#c5nnqw1CUZ" opacity="1" fill="#42c3e2" fill-opacity="1"></use></g><g><use xlink:href="#cicVeFmF3" opacity="1" fill="#42c3e2" fill-opacity="1"></use></g><g><use xlink:href="#b1ZmUH4Hl5" opacity="1" fill="#42c3e2" fill-opacity="1"></use></g><g><use xlink:href="#awUDVQqnf" opacity="1" fill="#42c3e2" fill-opacity="1"></use></g></g></g></svg>